HIERARCHY
ROOT Hips
{
 OFFSET 0.000000 0.000000 0.000000
 CHANNELS 6 Xposition Yposition Zposition Yrotation Xrotation Zrotation
 JOINT Chest
 {
  OFFSET 0.000000 9.585900 0.002600
  CHANNELS 3 Yrotation Xrotation Zrotation
  JOINT Chest2
  {
   OFFSET 0.000000 9.601200 -0.005300
   CHANNELS 3 Yrotation Xrotation Zrotation
   JOINT Chest3
   {
    OFFSET 0.000000 9.561800 0.000000
    CHANNELS 3 Yrotation Xrotation Zrotation
    JOINT Chest4
    {
     OFFSET 0.000000 9.552100 0.000000
     CHANNELS 3 Yrotation Xrotation Zrotation
     JOINT Neck
     {
      OFFSET 0.000000 14.453000 0.000000
      CHANNELS 3 Yrotation Xrotation Zrotation
      JOINT Head
      {
       OFFSET 0.000000 8.936500 -0.011300
       CHANNELS 3 Yrotation Xrotation Zrotation
       End Site
       {
        OFFSET 0.000000 17.073600 -0.006000
       }
      }
     }
     JOINT RightCollar
     {
      OFFSET -2.921100 9.558500 0.000000
      CHANNELS 3 Yrotation Xrotation Zrotation
      JOINT RightShoulder
      {
       OFFSET -13.519700 0.000000 0.000000
       CHANNELS 3 Yrotation Xrotation Zrotation
       JOINT RightElbow
       {
        OFFSET 0.000000 -29.696600 0.000000
        CHANNELS 3 Yrotation Xrotation Zrotation
        JOINT RightWrist
        {
         OFFSET 0.000000 -24.004700 0.000000
         CHANNELS 3 Yrotation Xrotation Zrotation
         End Site
         {
          OFFSET 0.000000 -17.728500 0.000000
         }
        }
       }
      }
     }
     JOINT LeftCollar
     {
      OFFSET 2.921100 9.558500 0.000000
      CHANNELS 3 Yrotation Xrotation Zrotation
      JOINT LeftShoulder
      {
       OFFSET 13.519700 0.000000 0.000000
       CHANNELS 3 Yrotation Xrotation Zrotation
       JOINT LeftElbow
       {
        OFFSET 0.000000 -29.696600 0.000000
        CHANNELS 3 Yrotation Xrotation Zrotation
        JOINT LeftWrist
        {
         OFFSET 0.000000 -24.004700 0.000000
         CHANNELS 3 Yrotation Xrotation Zrotation
         End Site
         {
          OFFSET 0.000000 -17.728500 0.000000
         }
        }
       }
      }
     }
    }
   }
  }
 }
 JOINT RightHip
 {
  OFFSET -7.771700 -0.012900 -0.001300
  CHANNELS 3 Yrotation Xrotation Zrotation
  JOINT RightKnee
  {
   OFFSET 0.000000 -40.869800 0.001200
   CHANNELS 3 Yrotation Xrotation Zrotation
   JOINT RightAnkle
   {
    OFFSET 0.000000 -39.717900 0.002100
    CHANNELS 3 Yrotation Xrotation Zrotation
    JOINT RightToe
    {
     OFFSET 0.000000 -4.965400 11.033500
     CHANNELS 3 Yrotation Xrotation Zrotation
     End Site
     {
      OFFSET 0.000000 -1.423100 5.872300
     }
    }
   }
  }
 }
 JOINT LeftHip
 {
  OFFSET 7.771700 -0.012900 -0.001300
  CHANNELS 3 Yrotation Xrotation Zrotation
  JOINT LeftKnee
  {
   OFFSET 0.000000 -40.869800 0.001200
   CHANNELS 3 Yrotation Xrotation Zrotation
   JOINT LeftAnkle
   {
    OFFSET 0.000000 -39.717900 0.002100
    CHANNELS 3 Yrotation Xrotation Zrotation
    JOINT LeftToe
    {
     OFFSET 0.000000 -4.965400 11.033500
     CHANNELS 3 Yrotation Xrotation Zrotation
     End Site
     {
      OFFSET 0.000000 -1.423100 5.872300
     }
    }
   }
  }
 }
}
MOTION
Frames: 8
Frame Time: 0.008333
0.000000 85.388000 0.000000 0.000000 -5.767877 0.000000 0.000000 11.653817 0.000000 0.000000 -5.885947 0.000000 0.000000 -0.000000 0.000000 0.000000 -0.000000 0.000000 0.000000 12.528835 0.000000 0.000000 0.711642 0.000000 0.000000 -0.000000 0.000000 0.000000 0.000000 -90.000000 0.000000 -2.309062 0.000000 0.000000 2.309062 0.000000 0.000000 -0.000000 0.000000 0.000000 -0.000000 90.000000 0.000000 -2.309062 0.000000 0.000000 2.309062 0.000000 0.000000 8.520406 0.000000 0.000000 1.905762 0.000000 -0.000000 -4.658285 0.000000 0.000000 -0.000000 0.000000 0.000000 8.520406 0.000000 0.000000 1.905762 0.000000 -0.000000 -4.658285 0.000000 0.000000 -0.000000 0.000000
-6.152021 56.052714 15.369076 -172.057024 -30.148164 -8.455498 -3.484997 14.195423 3.780909 -1.875309 8.117279 1.707193 -2.305435 10.185887 2.102554 -1.880746 8.085840 1.704051 2.261446 17.382679 -1.996861 2.868119 -7.374644 -2.623944 5.398857 -4.150964 -3.993324 3.804170 -22.292455 -0.215512 60.556070 -31.094445 -38.022315 7.839611 9.716060 -28.626347 -11.313126 -2.415731 -4.915310 -9.654993 -20.651213 4.229125 -63.779481 -25.671005 50.170769 1.656462 2.566170 10.328823 -22.941418 -29.801633 3.312267 8.341808 89.375086 8.555254 3.992699 -25.963008 -5.908573 -0.022978 0.782962 0.000037 -9.876294 -44.827262 4.783850 176.291706 74.134099 174.042393 -2.400052 -25.974096 2.461700 -0.031947 -0.744143 -0.012756
-6.155221 56.053522 15.374504 -172.059349 -30.168899 -8.452270 -3.485292 14.203148 3.775624 -1.874998 8.101842 1.706293 -2.310076 10.182266 2.095481 -1.876351 8.101443 1.706473 2.277817 17.414968 -1.987715 2.862576 -7.372308 -2.623598 5.395682 -4.175646 -4.006327 3.813159 -22.340385 -0.197837 60.319138 -31.136523 -37.805719 7.886019 9.740197 -28.326752 -11.306091 -2.438544 -4.905579 -9.689676 -20.667777 4.211287 -63.843848 -25.607581 50.146455 1.662892 2.558537 10.450802 -22.917925 -29.788409 3.303994 8.548683 89.373763 8.759436 3.976729 -25.956629 -5.895043 -0.024365 0.782662 -0.001460 -9.875001 -44.811069 4.766353 176.253007 74.137937 174.010640 -2.401639 -25.960728 2.454028 -0.023748 -0.748022 -0.015684
-6.158910 56.054341 15.380212 -172.059024 -30.193495 -8.451360 -3.485512 14.215494 3.772696 -1.873053 8.099618 1.705717 -2.310527 10.135195 2.093774 -1.876709 8.122027 1.704277 2.291154 17.471322 -1.975988 2.879934 -7.320074 -2.616848 5.390176 -4.175369 -4.018336 3.811320 -22.315196 -0.176703 60.123401 -31.210396 -37.664290 7.917129 9.770495 -28.027248 -11.297494 -2.479097 -4.888737 -9.700605 -20.623773 4.168272 -63.907599 -25.560497 50.140920 1.674631 2.554279 10.530027 -22.891598 -29.771049 3.290098 7.933243 89.369709 8.146492 3.976091 -25.949503 -5.886922 -0.024331 0.782324 -0.000554 -9.865485 -44.790557 4.743944 176.198037 74.142053 173.966145 -2.402784 -25.950704 2.451883 -0.020472 -0.748511 -0.021918
-6.162927 56.053851 15.387765 -172.057487 -30.207490 -8.450983 -3.491446 14.172282 3.768864 -1.868898 8.141734 1.704674 -2.315059 10.119138 2.092047 -1.872933 8.120700 1.703132 2.308218 17.520606 -1.964106 2.891026 -7.265335 -2.606841 5.387999 -4.182975 -4.029901 3.792788 -22.336478 -0.159350 59.920159 -31.258078 -37.479602 7.930909 9.806216 -27.742579 -11.296634 -2.498686 -4.876035 -9.697371 -20.586765 4.138369 -63.963959 -25.541243 50.145932 1.677255 2.551942 10.592144 -22.874038 -29.764743 3.296464 5.913418 89.365231 6.109264 3.981408 -25.944246 -5.871298 -0.028838 0.785336 0.005440 -9.854941 -44.783329 4.715463 176.149071 74.146514 173.935273 -2.397181 -25.941692 2.446705 -0.016899 -0.744928 -0.027495
-6.167059 56.052989 15.395049 -172.057327 -30.222848 -8.451838 -3.498457 14.159563 3.766392 -1.866568 8.140757 1.701736 -2.317051 10.116599 2.091410 -1.869074 8.145051 1.701839 2.322287 17.544595 -1.954037 2.915416 -7.161934 -2.582169 5.394678 -4.216821 -4.041428 3.750060 -22.428687 -0.158577 59.703964 -31.278854 -37.221949 7.933302 9.849394 -27.475483 -11.295752 -2.510183 -4.869112 -9.700046 -20.617275 4.107135 -63.992714 -25.496059 50.116204 1.665985 2.536703 10.670773 -22.856612 -29.757142 3.295089 5.275633 89.362254 5.465403 3.975103 -25.938115 -5.859112 -0.030933 0.785261 0.003357 -9.849273 -44.774805 4.700255 176.094588 74.148618 173.889104 -2.397358 -25.932332 2.440971 -0.018305 -0.743502 -0.025954
-6.171958 56.053642 15.398507 -172.061529 -30.263224 -8.450221 -3.496153 14.169475 3.763405 -1.875147 8.108866 1.698935 -2.311573 10.144237 2.086828 -1.871332 8.146196 1.700458 2.333429 17.593717 -1.940624 2.928530 -7.091865 -2.566215 5.407305 -4.225688 -4.046709 3.724238 -22.459605 -0.157403 59.521677 -31.308689 -37.046505 7.927702 9.900143 -27.220271 -11.292918 -2.495746 -4.866656 -9.715296 -20.701717 4.053668 -63.964219 -25.407156 50.039973 1.658671 2.511777 10.748353 -22.830695 -29.731902 3.280139 5.007283 89.374010 5.190636 3.970879 -25.942759 -5.847838 -0.033486 0.788370 0.004370 -9.833196 -44.731247 4.676427 176.034897 74.153938 173.837124 -2.391270 -25.920834 2.431234 -0.021478 -0.752266 -0.024767
-6.176271 56.051232 15.405790 -172.060596 -30.272580 -8.451035 -3.496284 14.149182 3.763698 -1.878103 8.113978 1.696375 -2.312651 10.134034 2.084439 -1.874702 8.144157 1.700807 2.344444 17.643671 -1.927788 2.934170 -7.036659 -2.553868 5.418952 -4.228901 -4.051119 3.706314 -22.456998 -0.152318 59.368796 -31.335695 -36.923570 7.919612 9.956342 -26.972405 -11.286549 -2.494293 -4.856749 -9.708233 -20.697238 4.018669 -63.977377 -25.387037 50.033959 1.659534 2.476763 10.827326 -22.826288 -29.731187 3.278641 4.658732 89.371257 4.834181 3.970569 -25.936910 -5.839741 -0.031192 0.789173 0.002076 -9.831426 -44.730626 4.664580 175.994972 74.154071 173.802833 -2.387337 -25.912337 2.424375 -0.022870 -0.750920 -0.022599
